<svg xmlns="http://www.w3.org/2000/svg" version="1.1" width="4500" height="4500">
<path d="M0 0 C814.44 0 1628.88 0 2468 0 C2470.62254979 8.52328681 2472.95345408 16.68804328 2474.6875 25.375 C2474.89955078 26.40238281 2475.11160156 27.42976563 2475.33007812 28.48828125 C2480.30320224 52.86757109 2481.83655113 82.20820582 2468 104 C2460.91485651 113.91638373 2452.48970711 117.89286171 2441.36865234 122.18969727 C2416.77770558 131.71208284 2400.1106621 149.6988152 2389.47070312 173.40771484 C2387.76976971 177.28269026 2386.10089567 181.17129247 2384.4375 185.0625 C2375.06353639 206.97955249 2366.34190517 226.36668103 2343.18359375 236.1953125 C2339.02560391 237.24628907 2335.1464758 237.29761673 2330.875 237.25 C2330.02752197 237.24613281 2329.18004395 237.24226563 2328.30688477 237.23828125 C2323.74658399 237.17567439 2319.42513461 236.88116248 2314.9375 236 C2289.95753195 231.20551378 2264.89071636 239.42103436 2244 253 C2240.17186385 255.83080594 2236.57139242 258.85390317 2233 262 C2232.22785156 262.65097656 2231.45570313 263.30195312 2230.66015625 263.97265625 C2220.31699267 272.90460617 2211.14895102 283.25789574 2202.125 293.5 C2192.53732166 304.15297593 2179.75059162 315.87709029 2164.73510742 317.19946289 C2162.21495817 317.30401772 2159.70973185 317.32911862 2157.1875 317.3125 C2156.29675781 317.30686035 2155.40601562 317.3012207 2154.48828125 317.29541016 C2148.20515036 317.17909853 2142.77436846 316.62833323 2137 314 C2136.08734375 313.5978125 2135.1746875 313.195625 2134.234375 312.78125 C2127.80630538 309.75231667 2121.85847228 306.13418068 2115.98339844 302.15966797 C2111.06860602 298.87494355 2106.46681243 296 2100.4375 296 C2096.3671482 297.18410234 2093.5444694 298.61727796 2091 302 C2088.18568713 308.55947923 2087.57300377 314.94495718 2087.75 322 C2087.76095703 322.90645264 2087.77191406 323.81290527 2087.78320312 324.74682617 C2087.88935837 331.35441331 2088.23084849 337.94178655 2088.63696289 344.53662109 C2089.96061411 366.44146434 2089.80057883 389.28990567 2075 407 C2071.44877061 411.00651521 2067.90266181 414.68485415 2063 417 C2062.01 417 2061.02 417 2060 417 C2059.98541748 415.83879639 2059.97083496 414.67759277 2059.95581055 413.48120117 C2059.44025941 375.36386244 2057.27811951 338.43623532 2045 302 C2044.76700195 301.30648438 2044.53400391 300.61296875 2044.29394531 299.8984375 C2034.3236512 270.76099123 2018.25575307 245.19511317 1997 223 C1996.52836426 222.50113281 1996.05672852 222.00226563 1995.57080078 221.48828125 C1935.40532267 158.08328028 1838.85072138 140.25899076 1735 132 C1734.24219238 131.95763214 1733.48438477 131.91526428 1732.70361328 131.87161255 C1714.97400296 130.90178143 1697.25039211 130.79805066 1679.5 130.8125 C1678.76353493 130.81276688 1678.02706985 130.81303375 1677.26828766 130.81330872 C1653.46249873 130.82411527 1629.74281728 131.12336102 1606 133 C1605.20573608 133.0608075 1604.41147217 133.12161499 1603.59313965 133.18426514 C1524.06401014 139.2926949 1436.14194678 155.20837732 1374 209 C1373.195625 209.69351562 1372.39125 210.38703125 1371.5625 211.1015625 C1369.00025045 213.35995554 1366.49275889 215.6651036 1364 218 C1363.50773926 218.45826172 1363.01547852 218.91652344 1362.50830078 219.38867188 C1319.29680566 259.94742018 1298.99916714 321.41967194 1296.90887451 379.53344727 C1296.21903211 403.43564246 1296.37250354 427.32130261 1300 451 C1300.16628906 452.09183594 1300.33257813 453.18367188 1300.50390625 454.30859375 C1306.42389474 491.5387436 1319.82161695 527.99328807 1343 558 C1343.71542969 558.92683594 1344.43085938 559.85367188 1345.16796875 560.80859375 C1353.48577732 571.24751926 1362.55589488 581.63728238 1373 590 C1374.01320313 590.82757812 1375.02640625 591.65515625 1376.0703125 592.5078125 C1414.55161861 623.5996522 1461.28043065 641.58775183 1509 653 C1508.50438171 680.6194556 1495.62870864 703.79453468 1482.046875 727.0625 C1473.11775574 742.40341043 1464.47896117 757.7451147 1459.5 774.875 C1459.26877441 775.66970703 1459.03754883 776.46441406 1458.79931641 777.28320312 C1456.76251179 784.87366408 1456.06160371 792.03797215 1455 800 C687.75 800 -79.5 800 -870 800 C-870 776.23291263 -864.40939625 767.78142232 -851.0859375 750.13671875 C-828.46444355 720.07737233 -819.42472194 685.47455484 -816.8215332 648.32836914 C-815.87521194 636.47760554 -811.85196965 624.35769724 -803 616 C-797.4259416 611.37331121 -791.23353957 607.91521748 -784.8125 604.625 C-784.14758545 604.27904785 -783.4826709 603.9330957 -782.79760742 603.57666016 C-778.56679251 601.47780601 -774.80480545 600.09033712 -770 600 C-767.4375 601.3359375 -767.4375 601.3359375 -765 603.375 C-758.33944593 608.58760754 -751.34139765 612.82859438 -744 617 C-743.30970703 617.39445312 -742.61941406 617.78890625 -741.90820312 618.1953125 C-684.70503437 650.52527114 -616.74860273 661.63666406 -552.0625 666.6875 C-551.29007965 666.74843842 -550.5176593 666.80937683 -549.72183228 666.87216187 C-526.14917745 668.70220103 -502.57497675 669.20788543 -478.9375 669.1875 C-477.63017914 669.18689575 -476.32285828 669.1862915 -474.97592163 669.18566895 C-384.89995527 669.09866913 -288.98408446 660.30814003 -159.4375 576.8125 C-125.6643735 542.94095372 -106.71158603 496.85681357 -100 450 C-99.85046875 448.97648437 -99.7009375 447.95296875 -99.546875 446.8984375 C-89.86792876 377.64390834 -99.32963072 300.27227688 -142 243 C-153.12668392 228.55355136 -165.52853283 215.13125306 -180 204 C-180.61955566 203.52046875 -181.23911133 203.0409375 -181.87744141 202.546875 C-249.18985487 150.92602633 -339.29995823 136.43952492 -422 132 C-422.75640778 131.95763214 -423.51281555 131.91526428 -424.29214478 131.87161255 C-441.31427853 130.93960676 -458.32996257 130.80115473 -475.37263107 130.81132126 C-477.58908995 130.81251431 -479.80554415 130.81196336 -482.02200317 130.81130981 C-506.94202325 130.81288692 -531.74361236 131.41613456 -556.58203125 133.5625 C-560.48334699 133.89624087 -564.33115966 134.11406369 -568.25 134.0625 C-569.16265625 134.05347656 -570.0753125 134.04445313 -571.015625 134.03515625 C-571.67046875 134.02355469 -572.3253125 134.01195312 -573 134 C-573.1074728 128.62635996 -572.82964011 123.54992068 -571.875 118.25 C-571.68357422 117.17721802 -571.68357422 117.17721802 -571.48828125 116.08276367 C-570.3392875 110.05636908 -568.75140103 104.18949565 -567 98.3125 C-566.62657471 97.05711426 -566.62657471 97.05711426 -566.24560547 95.77636719 C-564.81792492 91.15580577 -563.21042745 87.4208549 -561 83 C-375.87 83 -190.74 83 0 83 C0 55.61 0 28.22 0 0 Z M29.32589538 154.82314755 C27.44151266 157.91692343 25.25888111 160.66989638 23 163.5 C22.21238281 164.52609375 21.42476562 165.5521875 20.61328125 166.609375 C17.489524 170.6703813 14.33674639 174.70875317 11.1875 178.75 C4.90299498 186.81750692 -1.31645988 194.93317344 -7.52001953 203.06298828 C-11.33253539 208.05284325 -15.1685218 213.02470368 -19 218 C-20.66695292 220.16644651 -22.33347413 222.33322497 -24 224.5 C-24.83332547 225.58333938 -25.6666588 226.66667272 -26.5 227.75 C-26.9125 228.28625 -27.325 228.8225 -27.75 229.375 C-31.5 234.25 -31.5 234.25 -32.74951172 235.87426758 C-33.58459846 236.95994556 -34.41955898 238.04572065 -35.25439453 239.1315918 C-37.30989362 241.80486165 -39.36788115 244.47611627 -41.4296875 247.14453125 C-46.19837767 253.31846918 -50.92821039 259.52116566 -55.625 265.75 C-56.15851074 266.45423096 -56.69202148 267.15846191 -57.24169922 267.8840332 C-59.80801131 270.67903029 -59.80801131 270.67903029 -61 274 C19.85 274 100.7 274 184 274 C184 401.71 184 529.42 184 661 C237.13 661 290.26 661 345 661 C345 533.29 345 405.58 345 274 C406.71 274 468.42 274 532 274 C539.04614019 265.03218521 546.06281415 256.05092494 553 247 C558.57795243 239.72923614 564.18009888 232.47865938 569.8125 225.25 C576.09694941 217.1824492 582.31645938 209.06682722 588.52001953 200.93701172 C591.54338094 196.98000918 594.58272853 193.03532924 597.62109375 189.08984375 C599.19811979 187.04152258 600.77365859 184.99205545 602.34765625 182.94140625 C603.14042969 181.90886719 603.93320313 180.87632812 604.75 179.8125 C605.1531543 179.28736816 605.55630859 178.76223633 605.97167969 178.22119141 C608.41907025 175.0388289 610.88135515 171.86867035 613.35546875 168.70703125 C619.11344296 161.34549048 624.83611229 153.96599643 630.375 146.4375 C631.08064087 145.48157959 631.08064087 145.48157959 631.80053711 144.50634766 C634.01491504 141.9902788 634.01491504 141.9902788 635 139 C578.6630436 138.69181642 522.32600444 138.40525221 465.98843384 138.23782349 C464.73737149 138.23409595 464.73737149 138.23409595 463.46103516 138.2302931 C445.33430998 138.17641859 427.20757584 138.12655563 409.08082833 138.08082407 C400.19125336 138.05837235 391.30168082 138.03503434 382.41210938 138.01123047 C381.52749828 138.00887681 380.64288719 138.00652314 379.73146971 138.00409816 C351.06741141 137.92741709 322.40399253 137.79223209 293.74032149 137.62665003 C264.28035768 137.45677743 234.82074762 137.34604253 205.36030233 137.30953018 C201.19760447 137.30434352 197.03490781 137.29848207 192.87221146 137.29220963 C192.05294714 137.29099601 191.23368283 137.2897824 190.38959233 137.28853201 C177.21052903 137.26727484 164.03256071 137.18383032 150.85394366 137.07702339 C137.59918216 136.97093031 124.34550415 136.93060545 111.09033309 136.95697521 C103.21770793 136.97064983 95.34905325 136.93434256 87.47714666 136.82564422 C81.5922228 136.7499484 75.71002467 136.76881701 69.82478996 136.82381989 C67.44894375 136.83141416 65.07276066 136.80866623 62.69757573 136.75210272 C45.5826219 136.3683052 38.14114847 139.94558707 29.32589538 154.82314755 Z M731.02411816 152.25469523 C729.69875934 154.5133751 728.12665348 156.52138335 726.4765625 158.55078125 C725.52445655 159.80348433 724.57390448 161.05737011 723.625 162.3125 C719.11977834 168.23725015 714.57777214 174.13112634 710 180 C703.77053605 187.99030272 697.60872407 196.03062569 691.46240234 204.08496094 C685.41321617 212.00646617 679.31295819 219.88742169 673.1875 227.75 C666.9121186 235.80603687 660.70114762 243.90976505 654.50634766 252.02783203 C652.15529937 255.10591437 649.79772693 258.17895229 647.4375 261.25 C646.67308594 262.24515625 645.90867187 263.2403125 645.12109375 264.265625 C643.68724291 266.1140515 642.21977329 267.93680738 640.72265625 269.734375 C638.79824758 271.79098406 638.79824758 271.79098406 639 274 C719.52 274 800.04 274 883 274 C883 401.71 883 529.42 883 661 C936.13 661 989.26 661 1044 661 C1044 533.29 1044 405.58 1044 274 C1106.04 274 1168.08 274 1232 274 C1235.3 269.71 1238.6 265.42 1242 261 C1253.25 246.375 1253.25 246.375 1264.5 231.75 C1264.91217773 231.21415283 1265.32435547 230.67830566 1265.74902344 230.1262207 C1266.5855491 229.03876999 1267.42213803 227.95136793 1268.25878906 226.86401367 C1270.29379288 224.21906213 1272.32756533 221.57318888 1274.359375 218.92578125 C1279.15375095 212.68212498 1283.97411088 206.45961933 1288.8125 200.25 C1295.09694941 192.1824492 1301.31645938 184.06682722 1307.52001953 175.93701172 C1309.73618983 173.03646814 1311.9610769 170.14267669 1314.1875 167.25 C1314.98027344 166.21875 1315.77304688 165.1875 1316.58984375 164.125 C1318.26425428 161.95396528 1319.94332581 159.787304 1321.62890625 157.625 C1322.28693237 156.77760254 1322.28693237 156.77760254 1322.95825195 155.91308594 C1324.16277578 154.3622985 1325.37033299 152.81386845 1326.578125 151.265625 C1328.54517147 148.67792914 1330.35514597 146.00470102 1332.15136719 143.29589844 C1332.68638855 142.4900531 1333.22140991 141.68420776 1333.77264404 140.85394287 C1334.17767151 140.24214172 1334.58269897 139.63034058 1335 139 C1278.63474371 138.74320743 1222.26942998 138.50440038 1165.90374756 138.36485291 C1165.06942988 138.36278205 1164.2351122 138.36071119 1163.37551217 138.35857758 C1145.24324791 138.31368326 1127.11097743 138.27213064 1108.97869767 138.23402006 C1100.08654577 138.21531012 1091.19439555 138.1958618 1082.30224609 138.17602539 C1081.41737349 138.174064 1080.53250088 138.17210262 1079.62081395 138.1700818 C1050.94288092 138.10616898 1022.26539141 137.99350555 993.58772704 137.85554169 C964.11600503 137.71401536 934.64452844 137.62170991 905.17247235 137.59127515 C901.00913326 137.58695287 896.84579501 137.58206832 892.68245697 137.57684135 C891.86305781 137.57583001 891.04365865 137.57481866 890.19942922 137.57377667 C877.01268979 137.55605522 863.82670951 137.48649791 850.64027959 137.39751949 C837.38114052 137.30915798 824.12275348 137.27549264 810.86333033 137.29747934 C802.98632027 137.30888341 795.1120639 137.27853296 787.23555157 137.18803685 C781.35080449 137.12504891 775.46795454 137.14063532 769.58299217 137.18651658 C767.20452291 137.19285438 764.8258213 137.17382008 762.44780937 137.12675226 C747.08413646 136.84036119 738.9631433 138.45440411 731.02411816 152.25469523 Z " fill="#1E335F" transform="translate(1446,1733)"/>
<path d="M0 0 C1179.42 0 2358.84 0 3574 0 C3574 415.8 3574 831.6 3574 1260 C2394.58 1260 1215.16 1260 0 1260 C0 844.2 0 428.4 0 0 Z M46 46 C46 431.44 46 816.88 46 1214 C1195.06 1214 2344.12 1214 3528 1214 C3528 828.56 3528 443.12 3528 46 C2378.94 46 1229.88 46 46 46 Z " fill="#1E335F" transform="translate(463,1620)"/>
<path d="M0 0 C0.66198395 0.00011959 1.3239679 0.00023918 2.00601196 0.0003624 C139.27147213 0.03152304 139.27147213 0.03152304 181 29.1875 C181.72832031 29.69539063 182.45664063 30.20328125 183.20703125 30.7265625 C202.15478432 44.7299807 213.28053822 63.942181 218.8125 86.5625 C219.00739014 87.35076172 219.20228027 88.13902344 219.40307617 88.95117188 C222.6447898 103.27243121 223.33517491 117.86071035 223.26074219 132.49389648 C223.2499299 135.01635332 223.26076806 137.53811003 223.2734375 140.06054688 C223.30273172 164.79272021 223.30273172 164.79272021 218.79516602 169.48046875 C215.97660847 171.61407672 213.04062081 173.38421852 210 175.1875 C207.41116305 176.87852248 204.86095353 178.62386784 202.3125 180.375 C201.63574219 180.83608154 200.95898438 181.29716309 200.26171875 181.7722168 C192.47757956 187.1320429 185.22696381 193.10727009 178 199.1875 C177.03537842 199.99550049 177.03537842 199.99550049 176.05126953 200.81982422 C170.01258092 205.88913229 164.0414002 210.96755832 158.54296875 216.62890625 C155.52646213 219.67595977 152.28997883 222.44140746 149 225.1875 C148.50612793 225.6004834 148.01225586 226.0134668 147.50341797 226.43896484 C109.06892073 258.32016761 58.24215284 262.1114956 10.52003479 268.31256104 C7.23454203 268.74210332 3.96986228 269.19268069 0.70361328 269.75415039 C-1.67649166 270.13564635 -3.86881507 270.31636217 -6.2734375 270.3203125 C-7.48374634 270.32357544 -7.48374634 270.32357544 -8.71850586 270.3269043 C-9.59514893 270.32215088 -10.47179199 270.31739746 -11.375 270.3125 C-12.80307983 270.30633667 -12.80307983 270.30633667 -14.26000977 270.30004883 C-152.58301245 269.28030731 -152.58301245 269.28030731 -194.3581543 227.32202148 C-199.60073085 221.82540285 -203.44803668 215.9184281 -207 209.1875 C-207.46792969 208.30835937 -207.93585937 207.42921875 -208.41796875 206.5234375 C-219.21874643 184.52308418 -221.22463518 159.23329901 -221.1875 135.125 C-221.18689575 134.39794861 -221.1862915 133.67089722 -221.18566895 132.92181396 C-221.16013807 121.58143344 -220.8623822 110.39468856 -219 99.1875 C-218.87109375 98.40810059 -218.7421875 97.62870117 -218.609375 96.82568359 C-214.67088886 74.05631061 -206.57766437 54.56897899 -190 38.1875 C-189.35546875 37.53265625 -188.7109375 36.8778125 -188.046875 36.203125 C-159.83894099 9.46690928 -114.28026339 5.55816986 -77.625 2.5 C-76.9095401 2.43906158 -76.1940802 2.37812317 -75.4569397 2.31533813 C-50.36757028 0.21953988 -25.16252944 -0.01956805 0 0 Z " fill="#1E335F" transform="translate(3123,1997.8125)"/>
<path d="M0 0 C0.66286766 0.00026688 1.32573532 0.00053375 2.00868988 0.00080872 C147.65085481 0.0739165 147.65085481 0.0739165 191 37.1875 C191.73605469 37.81011719 192.47210937 38.43273438 193.23046875 39.07421875 C215.08243427 59.18151637 221.68962691 91.55958467 222.92529297 119.95166016 C224.11290976 155.4947797 223.06468311 197.75837333 197.5625 225.5625 C195.73941403 227.47315371 193.87897736 229.33021358 192 231.1875 C191.28199219 231.91582031 190.56398438 232.64414063 189.82421875 233.39453125 C164.75375435 257.33186732 125.6978903 262.68243616 92.75 266.375 C91.62028275 266.50228485 91.62028275 266.50228485 90.46774292 266.63214111 C79.65910389 267.83491759 68.86252655 268.66927998 58 269.1875 C56.25372314 269.27124878 56.25372314 269.27124878 54.47216797 269.35668945 C-138.06285288 277.75624216 -138.06285288 277.75624216 -190 232.1875 C-209.36112593 213.75614565 -217.87526176 188.13467296 -220.29296875 162.0234375 C-220 159.1875 -220 159.1875 -218.41015625 157.38671875 C-207.9399574 150.64467723 -196.93538767 144.97356665 -185.63769531 139.75683594 C-177.19794183 135.85820131 -169.4615576 131.79821882 -162 126.1875 C-161.26652344 125.64867188 -160.53304687 125.10984375 -159.77734375 124.5546875 C-149.64024403 116.4684461 -142.87469542 103.98275124 -141 91.1875 C-140.51398231 84.0182771 -141.66328058 77.22436572 -142.9375 70.1875 C-144.87270454 59.273767 -146.16914807 48.90838092 -146.125 37.8125 C-146.12886719 36.84828125 -146.13273438 35.8840625 -146.13671875 34.890625 C-146.13282658 31.98706797 -146.0789714 29.08994264 -146 26.1875 C-145.98163086 25.17397461 -145.96326172 24.16044922 -145.94433594 23.11621094 C-145.60147081 15.82972756 -145.60147081 15.82972756 -143.09765625 13.15625 C-138.58453131 11.74483136 -134.06846317 10.6410569 -129.4375 9.6875 C-128.40375244 9.47174316 -127.37000488 9.25598633 -126.30493164 9.03369141 C-123.20665192 8.39952529 -120.10508418 7.78739242 -117 7.1875 C-116.20207031 7.03249023 -115.40414062 6.87748047 -114.58203125 6.71777344 C-102.67703315 4.48953707 -90.62039124 3.54431688 -78.5625 2.5625 C-77.81080536 2.49987976 -77.05911072 2.43725952 -76.28463745 2.3727417 C-50.91045957 0.29092452 -25.44709798 -0.02157922 0 0 Z " fill="#1E335F" transform="translate(967,1997.8125)"/>
<path d="M0 0 C1.58736672 0.00028239 3.17473357 0.00012312 4.76210022 -0.0004425 C9.05282351 -0.00072844 13.34351862 0.00513536 17.63423538 0.01213145 C22.1252147 0.0183989 26.61619472 0.01897147 31.10717773 0.02015686 C39.60320807 0.02326019 48.09922548 0.0314601 56.59525013 0.04150635 C66.2711869 0.05269851 75.94712431 0.05818575 85.62306595 0.06320179 C105.51955117 0.07364357 125.41602477 0.09122365 145.3125 0.11352539 C144.38068702 1.52675672 143.44675312 2.93858973 142.51196289 4.34985352 C141.99211319 5.13622192 141.47226349 5.92259033 140.93666077 6.73278809 C138.37315689 10.49043907 135.57100642 14.04740886 132.75 17.61352539 C131.64357368 19.0190221 130.53815863 20.42531532 129.43359375 21.83227539 C128.82209976 22.56868759 128.21060577 23.30509979 127.58058167 24.06382751 C125.78837184 26.47366072 124.44415646 28.66212182 123.04051208 31.28443909 C119.67751724 37.1056148 116.13978711 42.78190231 109.53764915 45.07897568 C101.29508296 46.5841281 92.93857484 46.15998177 84.6015625 45.92211914 C81.90160677 45.89805203 79.20184672 45.90028064 76.50180054 45.90211487 C70.14441612 45.89201514 63.79137272 45.79754098 57.4353689 45.67014796 C48.80697873 45.50117482 40.17807748 45.45169481 31.54833102 45.39960682 C29.46852786 45.38699062 27.38872803 45.37395828 25.30892944 45.36061096 C24.29690006 45.35422555 24.29690006 45.35422555 23.26442564 45.34771115 C18.63335565 45.31535554 14.00351272 45.24931562 9.37295532 45.17051697 C8.14298828 45.15277725 6.91302124 45.13503754 5.64578247 45.11676025 C3.35748463 45.08300252 1.06928322 45.04134866 -1.21868896 44.99006653 C-7.41778437 44.90839048 -13.15537891 44.87651536 -18.5625 48.30102539 C-20.82660582 51.94875144 -20.96892962 55.73764727 -20.125 59.86352539 C-18.07867429 63.06646998 -16.23844194 63.72864933 -12.6875 65.11352539 C-9.27431232 65.54343486 -5.89059256 65.53067951 -2.45385742 65.51416016 C-0.92805557 65.52462875 -0.92805557 65.52462875 0.62857056 65.53530884 C3.98814193 65.55528266 7.34740574 65.55478549 10.70703125 65.55493164 C13.05670491 65.56671306 15.40637112 65.58007915 17.75602722 65.59495544 C23.94891785 65.6311592 30.1417425 65.65133679 36.3347168 65.66650391 C46.20648577 65.69130255 56.07810853 65.73150648 65.94974327 65.78840446 C69.37537036 65.80454684 72.80085655 65.80849551 76.22651672 65.81141663 C123.21685419 65.96518558 123.21685419 65.96518558 139.40234375 82.21118164 C149.20457948 93.96143039 150.1721514 107.41985426 149.3125 122.11352539 C147.70515454 134.95866747 142.41623157 145.87816788 132.3125 154.11352539 C116.27000739 166.09570571 96.34093013 167.43164689 77.04760742 167.34057617 C75.35113024 167.34001075 73.65465256 167.34033118 71.95817566 167.34146118 C67.39293153 167.34203057 62.82779437 167.33034387 58.26257491 167.31631327 C53.47667607 167.30373634 48.69077427 167.30262995 43.90486145 167.30026245 C34.86003291 167.29406802 25.81525323 167.277685 16.77044612 167.25756347 C6.46563174 167.23514078 -3.83918508 167.22419508 -14.14401782 167.2141726 C-35.32520572 167.19331678 -56.50634977 167.15818076 -77.6875 167.11352539 C-76.382731 164.45060278 -75.03991917 162.08485203 -73.25390625 159.71508789 C-72.77526123 159.07772705 -72.29661621 158.44036621 -71.8034668 157.78369141 C-71.29082275 157.10878662 -70.77817871 156.43388184 -70.25 155.73852539 C-69.71866455 155.0346167 -69.1873291 154.33070801 -68.63989258 153.60546875 C-63.89204856 147.33668256 -59.11905097 141.06941562 -54.12377453 134.99453831 C-52.62358691 133.10296722 -52.62358691 133.10296722 -51.33437824 130.85283566 C-49.01581616 127.2506826 -47.21878483 124.58838346 -43.01988792 123.28628731 C-39.7196763 122.97918529 -36.52358276 122.95738088 -33.2097168 123.03173828 C-31.96654694 123.02388306 -30.72337708 123.01602783 -29.4425354 123.00793457 C-26.04603773 122.99485919 -22.65415523 123.02130689 -19.25820518 123.06491399 C-15.69273912 123.10065737 -12.12753538 123.08364542 -8.56196594 123.07188416 C-1.80573685 123.05718899 4.94951298 123.08643642 11.70556945 123.13305515 C21.59751006 123.1996158 31.48952593 123.20605234 41.38166332 123.20538235 C42.11018153 123.20535451 42.83869974 123.20532668 43.58929425 123.20529801 C45.04321491 123.20522296 46.49713556 123.20502549 47.95105618 123.20470232 C52.18424203 123.20531725 56.41704819 123.22057434 60.65013659 123.24900544 C63.91557322 123.26937155 67.18105513 123.27801301 70.4465332 123.28955078 C72.185476 123.30751961 72.185476 123.30751961 73.95954895 123.32585144 C81.7422216 123.33902167 88.90891472 122.58138715 96.3125 120.11352539 C97.39249446 117.28940194 97.4476532 114.55129543 97.4375 111.55102539 C97.44007813 110.78661133 97.44265625 110.02219727 97.4453125 109.23461914 C97.39157384 106.92354044 97.39157384 106.92354044 96.3125 104.11352539 C86.6264854 99.24613028 73.76257374 100.68833965 63.28529739 100.70283508 C59.72658934 100.70735473 56.16836774 100.69319565 52.60971069 100.67443848 C45.05231477 100.63783824 37.49497145 100.62397932 29.9375 100.61352539 C21.17867019 100.60139733 12.42008034 100.57964126 3.66135788 100.53352356 C0.17734793 100.52006808 -3.30634955 100.52410296 -6.79037476 100.52893066 C-26.39450143 100.48120606 -45.90381239 98.73971377 -60.58984375 84.23461914 C-70.97086686 73.01960263 -72.27561126 61.31810869 -71.9921875 46.58618164 C-71.51020091 34.92489445 -67.64576107 25.68704698 -59.6875 17.11352539 C-42.98578374 2.10507069 -21.47309169 -0.05357941 0 0 Z " fill="#1E335F" transform="translate(1353.6875,2599.886474609375)"/>
<path d="M0 0 C64.02 0 128.04 0 194 0 C192.23914673 4.40213318 190.97243091 6.5180095 188 10 C184.59748256 14.06124482 181.28003826 18.16466849 178.0625 22.375 C177.65257813 22.91036377 177.24265625 23.44572754 176.8203125 23.99731445 C175.54560738 25.66391197 174.27270415 27.33187408 173 29 C171.16877931 31.39745765 169.33496255 33.79290568 167.5 36.1875 C166.86783569 37.01677002 166.86783569 37.01677002 166.22290039 37.86279297 C164.56448123 40.0271302 162.93065824 42.06934176 161 44 C159.06722832 44.24609566 159.06722832 44.24609566 156.65939331 44.24050903 C155.29217636 44.24463303 155.29217636 44.24463303 153.89733887 44.24884033 C152.89464966 44.24164978 151.89196045 44.23445923 150.85888672 44.22705078 C149.80520905 44.22734283 148.75153137 44.22763489 147.66592407 44.22793579 C144.17042916 44.22653838 140.67514534 44.21095776 137.1796875 44.1953125 C134.76116045 44.19158383 132.34263189 44.18873617 129.92410278 44.18673706 C123.54868421 44.17908908 117.1733563 44.15943059 110.79797363 44.1373291 C104.29631782 44.11689573 97.7946474 44.10774072 91.29296875 44.09765625 C78.52860593 44.07618581 65.76431049 44.04203584 53 44 C53 50.27 53 56.54 53 63 C96.56 63 140.12 63 185 63 C183.16588406 66.66823187 181.26052279 69.40787311 178.75 72.625 C178.10985962 73.44859009 178.10985962 73.44859009 177.45678711 74.28881836 C176.50574096 75.51159198 175.55309398 76.73312165 174.59912109 77.95361328 C172.20747928 81.01418453 169.82446054 84.081448 167.44042969 87.14794922 C166.20621447 88.7348432 164.97121174 90.32112505 163.73535156 91.90673828 C163.16397461 92.64005371 162.59259766 93.37336914 162.00390625 94.12890625 C161.49674072 94.77931885 160.9895752 95.42973145 160.46704102 96.09985352 C158.93463175 97.94224254 158.93463175 97.94224254 158.02053833 100.09037781 C154.64399016 103.28157257 150.66963815 102.52153107 146.2043457 102.45410156 C145.19928986 102.45468567 144.19423401 102.45526978 143.15872192 102.45587158 C139.83072587 102.45308088 136.50362118 102.42194146 133.17578125 102.390625 C130.87078847 102.38316614 128.56578935 102.37747154 126.26078796 102.37347412 C120.18938742 102.35818995 114.11836867 102.31888374 108.04711914 102.2746582 C101.85373093 102.23376573 95.66028112 102.21547596 89.46679688 102.1953125 C77.31100304 102.15239243 65.15559298 102.08201942 53 102 C53 109.26 53 116.52 53 124 C99.86 124 146.72 124 195 124 C192.6695656 127.49565159 190.4665929 130.79211117 187.8984375 134.06640625 C187.3305249 134.79311523 186.7626123 135.51982422 186.17749023 136.26855469 C185.58266846 137.02555664 184.98784668 137.78255859 184.375 138.5625 C183.12337869 140.16251075 181.87207879 141.76277297 180.62109375 143.36328125 C180.00733887 144.14783691 179.39358398 144.93239258 178.76123047 145.74072266 C175.53999743 149.87286717 172.36233369 154.0382595 169.18359375 158.203125 C168.10271484 159.58757813 168.10271484 159.58757813 167 161 C166.44838699 162.03363678 165.89677399 163.06727356 165.32844543 164.13223267 C163.27916911 166.54339423 162.12271173 166.97810633 158.95921898 167.54252243 C154.81465668 167.74246001 150.70849918 167.74224225 146.5612793 167.68115234 C144.93867739 167.67931379 143.31607069 167.68011621 141.69347095 167.68334389 C137.35072161 167.68469768 133.00896557 167.64994231 128.6664505 167.60768127 C124.59063104 167.57349309 120.51505229 167.57190172 116.43908691 167.56762695 C104.52175987 167.53615177 92.60461736 167.45238462 80.6875 167.375 C54.060625 167.25125 27.43375 167.1275 0 167 C0 111.89 0 56.78 0 0 Z " fill="#1E335F" transform="translate(2819,2600)"/>
<path d="M0 0 C6.84973609 5.70409361 11.93999453 12.63177625 16.7421875 20.07421875 C20.00520667 25.10482354 23.47162342 29.99601061 26.90625 34.91015625 C31.876657 42.03392826 36.82567627 49.17053349 41.71875 56.34765625 C47.2321078 64.43184458 52.81300439 72.467778 58.40698242 80.49633789 C64.47380434 89.20588476 70.49027759 97.94909442 76.49121094 106.70410156 C82.36769005 115.27489935 88.28046196 123.81954521 94.21875 132.34765625 C96.24910256 135.26610789 98.27917829 138.1847518 100.30908203 141.10351562 C101.53557985 142.86595944 102.76303712 144.62773617 103.99169922 146.38867188 C105.54991685 148.62268222 107.10368952 150.8597124 108.65625 153.09765625 C109.3378418 154.0712207 109.3378418 154.0712207 110.03320312 155.06445312 C111.82197092 157.65072493 113.21818198 159.8459522 114.21875 162.84765625 C49.86875 162.84765625 -14.48125 162.84765625 -80.78125 162.84765625 C-74.03355602 152.72611528 -74.03355602 152.72611528 -71.51953125 149.33984375 C-70.95685547 148.57929688 -70.39417969 147.81875 -69.81445312 147.03515625 C-69.24662109 146.27203125 -68.67878906 145.50890625 -68.09375 144.72265625 C-66.96458461 143.19941081 -65.83568783 141.67596623 -64.70703125 140.15234375 C-64.06628662 139.34837158 -63.42554199 138.54439941 -62.76538086 137.71606445 C-61.13912115 135.36502159 -60.18927873 133.5314771 -59.12719727 130.93823242 C-56.87713764 126.11751752 -54.52751871 122.47208614 -49.78125 119.84765625 C-39.00758033 117.29348387 -27.56675706 118.0632588 -16.57659912 118.35412598 C-12.42705255 118.44776849 -8.27739707 118.45541777 -4.12695312 118.47070312 C3.99078549 118.5130764 12.10331696 118.64983811 20.21875 118.84765625 C19.48301758 117.81624512 18.74728516 116.78483398 17.98925781 115.72216797 C10.78926598 105.59523923 3.81396014 95.34184623 -3.03125 84.97265625 C-12.82246734 69.03391536 -12.82246734 69.03391536 -24.78125 54.84765625 C-25.10697998 55.32895996 -25.43270996 55.81026367 -25.76831055 56.30615234 C-32.36760258 66.04220887 -39.05664867 75.69714163 -45.97119141 85.2121582 C-51.14950701 92.33915983 -56.22989618 99.53270768 -61.29736328 106.73876953 C-63.78773786 110.27806792 -66.28484792 113.81260809 -68.78125 117.34765625 C-69.78128195 118.76430037 -70.78128196 120.18096703 -71.78125 121.59765625 C-77.78125 130.09765625 -77.78125 130.09765625 -79.28369141 132.22607422 C-80.27560459 133.63131151 -81.26746724 135.03658448 -82.25927734 136.44189453 C-84.88257508 140.15873686 -87.5069551 143.87480922 -90.1328125 147.58984375 C-90.68066406 148.36521484 -91.22851562 149.14058594 -91.79296875 149.93945312 C-92.84472968 151.42796223 -93.89679816 152.91625409 -94.94921875 154.40429688 C-95.42230469 155.07396484 -95.89539063 155.74363281 -96.3828125 156.43359375 C-96.79869629 157.02188965 -97.21458008 157.61018555 -97.64306641 158.21630859 C-98.71009666 159.74567285 -99.74684068 161.29604227 -100.78125 162.84765625 C-103.41348267 163.2084198 -103.41348267 163.2084198 -106.79150391 163.18823242 C-108.05266022 163.18800583 -109.31381653 163.18777924 -110.6131897 163.18754578 C-111.99473421 163.17222469 -113.37627513 163.15657669 -114.7578125 163.140625 C-116.16742503 163.13503058 -117.57704338 163.13075975 -118.98666382 163.12776184 C-122.69893464 163.11630079 -126.410854 163.08682329 -130.12298584 163.0536499 C-133.91006719 163.02297585 -137.69720526 163.00926224 -141.484375 162.99414062 C-148.916827 162.96195436 -156.34898928 162.91074335 -163.78125 162.84765625 C-161.64788551 159.04860005 -159.55000541 155.33997044 -156.96875 151.82421875 C-156.45691162 151.12224365 -155.94507324 150.42026855 -155.41772461 149.69702148 C-154.87768799 148.96298096 -154.33765137 148.22894043 -153.78125 147.47265625 C-152.61511951 145.87295387 -151.44977278 144.27267991 -150.28515625 142.671875 C-149.69879395 141.86669434 -149.11243164 141.06151367 -148.50830078 140.23193359 C-145.88090506 136.60468641 -143.29650136 132.94778243 -140.71875 129.28515625 C-140.22826172 128.5885791 -139.73777344 127.89200195 -139.23242188 127.17431641 C-138.24304879 125.76858757 -137.25395285 124.36266363 -136.26513672 122.95654297 C-133.27517482 118.70723549 -130.27610255 114.46435192 -127.27880859 110.22021484 C-124.78839626 106.69314306 -122.3000688 103.16464125 -119.81640625 99.6328125 C-114.72602639 92.39924704 -109.59914023 85.19554878 -104.40625 78.03515625 C-97.98548727 69.17793478 -91.71695932 60.21785028 -85.45703125 51.24658203 C-76.68748945 38.69274786 -67.81769251 26.21096411 -58.78125 13.84765625 C-58.07871094 12.8834375 -57.37617187 11.91921875 -56.65234375 10.92578125 C-49.98052868 2.03002782 -42.14130151 -4.41956783 -31.0390625 -6.8359375 C-19.6254659 -8.43542076 -9.43792737 -6.76274021 0 0 Z " fill="#1E335F" transform="translate(1103.78125,2604.15234375)"/>
<path d="M0 0 C4.57154623 3.4138937 8.7996743 7.14332662 13 11 C13.5995752 11.54994629 14.19915039 12.09989258 14.81689453 12.66650391 C17.84383176 15.45288983 20.85454624 18.25594748 23.85546875 21.0703125 C26.82578738 23.85032728 29.86492303 26.53798081 32.9453125 29.1953125 C35.66924787 31.58781847 38.33339986 34.04409419 41 36.5 C44.958548 40.14422161 48.95176975 43.73913904 53.015625 47.265625 C57.05374691 50.79500714 61.01914681 54.40634226 65 58 C66.66640851 59.50028679 68.33307353 61.00028872 70 62.5 C73.33333333 65.5 76.66666667 68.5 80 71.5 C80.82242188 72.23992188 81.64484375 72.97984375 82.4921875 73.7421875 C84.18592894 75.26708244 85.87861169 76.79315402 87.5703125 78.3203125 C97.03761344 86.95719122 97.03761344 86.95719122 107 95 C107 63.32 107 31.64 107 -1 C122.84 -1 138.68 -1 155 -1 C155.06781 17.73294785 155.12303586 36.46579581 155.15543652 55.19883537 C155.17088285 63.89757568 155.19192951 72.59623412 155.22631836 81.29492188 C155.25628927 88.87972735 155.27559123 96.46447351 155.28226548 104.04933655 C155.28616475 108.0627293 155.29528163 112.07595242 155.31719017 116.08929062 C155.33767711 119.87316104 155.34380938 123.65679326 155.33932304 127.44071388 C155.34053127 129.47847673 155.35660912 131.51621413 155.3732605 133.5539093 C155.33941265 143.68036605 154.10016008 154.17977651 147 162 C137.98973503 168.71381757 130.1476051 170.02770763 119 169 C110.79394826 166.64392072 105.03523293 160.75545392 99 155 C97.71530728 153.86704264 96.42401411 152.741508 95.125 151.625 C91.15902924 148.17283922 87.29482354 144.61249119 83.42675781 141.05175781 C79.9897558 137.89302035 76.50978679 134.79361664 72.984375 131.734375 C68.94625309 128.20499286 64.98085319 124.59365774 61 121 C59.33359149 119.49971321 57.66692647 117.99971128 56 116.5 C49.33333333 110.5 42.66666667 104.5 36 98.5 C35.17757812 97.76007812 34.35515625 97.02015625 33.5078125 96.2578125 C31.81407106 94.73291756 30.12138831 93.20684598 28.4296875 91.6796875 C23.32464761 87.07422338 18.18464912 82.51566214 13 78 C10.36 75.69 7.72 73.38 5 71 C4.67 102.35 4.34 133.7 4 166 C-11.84 166 -27.68 166 -44 166 C-44.06780868 147.13666836 -44.12303509 128.27343591 -44.15543652 109.4100132 C-44.17088318 100.65073904 -44.19193048 91.89154618 -44.22631836 83.13232422 C-44.25628825 75.49478104 -44.27559099 67.85729676 -44.28226548 60.2196964 C-44.28616492 56.1783585 -44.29528291 52.13718904 -44.31719017 48.0959053 C-44.33767548 44.28577049 -44.34380969 40.47587222 -44.33932304 36.66568756 C-44.34014289 35.27340023 -44.34603653 33.88110432 -44.35761642 32.4888649 C-44.43697503 22.44828936 -43.94491594 12.72246805 -37.51171875 4.53125 C-27.60934242 -5.49906401 -11.96805169 -7.09610145 0 0 Z " fill="#1E335F" transform="translate(726,2601)"/>
<path d="M0 0 C4.56432551 3.42178681 8.79564283 7.14923508 13 11 C13.5671875 11.51755859 14.134375 12.03511719 14.71875 12.56835938 C17.5183083 15.12931895 20.30332985 17.70521473 23.078125 20.29296875 C25.97420452 22.97610125 28.92437594 25.57837159 31.91015625 28.16015625 C34.64370599 30.56670191 37.32112354 33.03304949 40 35.5 C43.93282404 39.12092721 47.90214082 42.68958986 51.94140625 46.19140625 C55.45442302 49.2777948 58.89299818 52.44628778 62.34765625 55.59765625 C64.52460996 57.56941844 66.71838674 59.51365337 68.9375 61.4375 C72.88589474 64.86700919 76.72857458 68.40876823 80.57568359 71.95068359 C83.97806721 75.07786651 87.42362142 78.14443874 90.91796875 81.16796875 C94.55934861 84.37210975 98.11383833 87.6732047 101.6796875 90.9609375 C103.81946882 93.01577328 103.81946882 93.01577328 106 94 C106.495 46.975 106.495 46.975 107 -1 C122.84 -1 138.68 -1 155 -1 C155.06782933 17.71567716 155.12304706 36.43125416 155.15543652 55.1470232 C155.17087801 63.83788784 155.19191531 72.52867045 155.22631836 81.21948242 C155.25630421 88.79807155 155.27559474 96.37660125 155.28226548 103.95524806 C155.28616225 107.96476045 155.29526291 111.97410287 155.31719017 115.98356056 C155.33770081 119.7649718 155.34380469 123.54614461 155.33932304 127.3276062 C155.34052928 129.36159828 155.35659454 131.39556498 155.3732605 133.42948914 C155.33946134 143.55264652 154.44704164 153.1997893 147.8125 161.27734375 C140.46840909 168.25739567 132.36935813 169.44325874 122.6015625 169.33203125 C112.50372138 168.4011023 106.02597245 161.71858615 99 155 C97.33850669 153.49427169 95.67185234 151.99421803 94 150.5 C91.47499507 148.2282871 88.95086696 145.95564586 86.4296875 143.6796875 C82.68435744 140.30087292 78.93481793 136.93104035 75.125 133.625 C71.15747276 130.17148439 67.2915236 126.6099606 63.42236328 123.04736328 C60.64541318 120.49474237 57.85036687 117.97031795 55 115.5 C51.60949156 112.56155935 48.30033018 109.53883698 45 106.5 C41.04140277 102.8558306 37.04823168 99.26086221 32.984375 95.734375 C28.04979754 91.42147659 23.209211 87.00067191 18.3515625 82.6015625 C17.49304687 81.82554687 16.63453125 81.04953125 15.75 80.25 C14.59757812 79.20585937 14.59757812 79.20585937 13.421875 78.140625 C10.66415447 75.70315589 7.82745908 73.3562159 5 71 C4.67 102.35 4.34 133.7 4 166 C-11.84 166 -27.68 166 -44 166 C-44.06781 147.26705215 -44.12303586 128.53420419 -44.15543652 109.80116463 C-44.17088285 101.10242432 -44.19192951 92.40376588 -44.22631836 83.70507812 C-44.25628927 76.12027265 -44.27559123 68.53552649 -44.28226548 60.95066345 C-44.28616475 56.9372707 -44.29528163 52.92404758 -44.31719017 48.91070938 C-44.33767711 45.12683896 -44.34380938 41.34320674 -44.33932304 37.55928612 C-44.34053127 35.52152327 -44.35660912 33.48378587 -44.3732605 31.4460907 C-44.3376182 20.78277671 -43.06859117 11.44886843 -35.50390625 3.41015625 C-25.74913001 -5.80393955 -11.43933017 -6.78946989 0 0 Z " fill="#1E335F" transform="translate(3663,2601)"/>
<path d="M0 0 C17.49 0 34.98 0 53 0 C53 19.47 53 38.94 53 59 C85.34 59 117.68 59 151 59 C151 39.53 151 20.06 151 0 C168.16 0 185.32 0 203 0 C203 55.11 203 110.22 203 167 C185.84 167 168.68 167 151 167 C151 145.88 151 124.76 151 103 C118.66 103 86.32 103 53 103 C53 124.12 53 145.24 53 167 C35.51 167 18.02 167 0 167 C0 111.89 0 56.78 0 0 Z " fill="#1E335F" transform="translate(1575,2600)"/>
<path d="M0 0 C8.24911453 -0.44310956 16.4931624 -0.77912842 24.7512846 -0.98443127 C28.58793256 -1.08305971 32.41637319 -1.21629131 36.24829102 -1.43334961 C60.81722949 -2.78814935 60.81722949 -2.78814935 67.56939697 1.71270752 C71.82454855 6.04563305 74.42351303 11.0859862 76.87857056 16.59164429 C78.46701268 20.00294554 80.49074782 22.83511489 82.6875 25.890625 C84.12541251 28.01013687 85.56290713 30.1299323 87 32.25 C87.80140729 33.43165758 88.60284043 34.61329763 89.40429688 35.79492188 C93.67779757 42.09628991 97.94853896 48.39952739 102.21875 54.703125 C102.65386902 55.34540039 103.08898804 55.98767578 103.53729248 56.64941406 C105.73171403 59.88878377 107.92551032 63.12857404 110.11816406 66.36914062 C114.11621799 72.27659871 118.11918836 78.18049203 122.14355469 84.07006836 C123.92320456 86.67462712 125.70049751 89.28079052 127.4777832 91.88696289 C128.31942075 93.11945878 129.16233767 94.35108209 130.0065918 95.58178711 C131.16900164 97.27635652 132.32711544 98.97378592 133.484375 100.671875 C134.14147461 101.6319043 134.79857422 102.59193359 135.47558594 103.58105469 C137 106 137 106 138 109 C138.66 109 139.32 109 140 109 C140.23074219 108.48695313 140.46148438 107.97390625 140.69921875 107.4453125 C142.48752739 104.08350707 144.64611057 100.99952682 146.8125 97.875 C147.29605957 97.17415283 147.77961914 96.47330566 148.27783203 95.7512207 C152.44014612 89.74673411 156.72285511 83.83306809 161.02075195 77.92529297 C164.94358078 72.51357885 168.7465896 67.03029987 172.5 61.5 C177.28232507 54.45641603 182.18837435 47.5181485 187.19311523 40.63110352 C190.85398849 35.59264249 194.47640103 30.5294478 198.0625 25.4375 C198.7332531 24.53200409 198.7332531 24.53200409 199.41755676 23.60821533 C202.03895037 20.01132016 204.28229087 16.56956147 206.08862305 12.49462891 C208.56062014 7.40112832 211.16664512 3.12808748 216 0 C225.48644944 -2.66109948 235.82069608 -1.6844007 245.56481934 -1.16729736 C249.22382799 -0.99181784 252.884852 -0.91543008 256.546875 -0.83007812 C263.70283173 -0.64897725 270.85061309 -0.35981146 278 0 C276.74670514 3.22578517 275.51585394 5.93886837 273.453125 8.72265625 C272.94515381 9.41560791 272.43718262 10.10855957 271.91381836 10.82250977 C271.3647583 11.56170654 270.81569824 12.30090332 270.25 13.0625 C269.06769557 14.67612076 267.88675395 16.29074077 266.70703125 17.90625 C266.09553223 18.74285156 265.4840332 19.57945312 264.85400391 20.44140625 C261.83115406 24.6130505 258.88320913 28.83619036 255.9375 33.0625 C254.76177522 34.74743524 253.58599438 36.43233136 252.41015625 38.1171875 C251.8392627 38.93541992 251.26836914 39.75365234 250.68017578 40.59667969 C246.63037576 46.38950611 242.54384632 52.15649565 238.46337891 57.92773438 C236.9874316 60.0177979 235.51475678 62.11013089 234.04296875 64.203125 C228.93322386 71.46478281 223.78240412 78.69206169 218.5625 85.875 C214.05907629 92.07537574 209.67891669 98.34713637 205.375 104.6875 C201.11732036 110.95947724 196.76216242 117.13228479 192.24047852 123.21630859 C188.96258588 127.64256043 185.79395486 132.13676945 182.65332031 136.66137695 C162.24936881 166.04685565 162.24936881 166.04685565 147.73046875 169.6015625 C135.86602491 171.33285473 125.5514601 170.28848544 115.5 163.625 C106.54339144 156.72752712 100.56647213 147.03548679 94.44921875 137.6796875 C91.12501324 132.63736964 87.64318749 127.70259173 84.1875 122.75 C79.60550686 116.17985221 75.02776199 109.60766188 70.5 103 C66.0299137 96.47909384 61.51849197 89.98744378 57 83.5 C52.05106662 76.39454817 47.11871995 69.27868322 42.22265625 62.13671875 C38.17495858 56.23933134 34.08802308 50.36948137 30 44.5 C24.51341345 36.62157754 19.04438096 28.73195193 13.6171875 20.8125 C11.71406533 18.03583746 9.80070235 15.26648234 7.8828125 12.5 C7.36952393 11.75806396 6.85623535 11.01612793 6.32739258 10.25170898 C5.33686374 8.8202711 4.34458454 7.39004244 3.3503418 5.96118164 C0 1.11237474 0 1.11237474 0 0 Z " fill="#1E335F" transform="translate(1845,2600)"/>
<path d="M0 0 C0.73636733 0.00291284 1.47273467 0.00582568 2.23141617 0.00882679 C3.00814554 0.00797237 3.78487491 0.00711794 4.58514154 0.00623763 C7.2077701 0.00458047 9.83033578 0.01010802 12.45295852 0.01555592 C14.32500339 0.01583777 16.19704837 0.01568011 18.06909317 0.01511341 C23.16805449 0.01482534 28.2669925 0.02072362 33.36594838 0.02768737 C38.68844321 0.03391931 44.01093851 0.03452458 49.33343643 0.03571278 C59.41987579 0.03882657 69.50630438 0.04704059 79.59273899 0.05706227 C91.07259067 0.06822193 102.55244287 0.07373348 114.03229862 0.0787577 C137.65421403 0.08922317 161.27611985 0.10682353 184.89802688 0.12908131 C183.62943207 3.4167242 182.44633775 5.99173604 180.17537063 8.69548756 C179.64129593 9.33977711 179.10722122 9.98406666 178.55696243 10.64788014 C177.9888887 11.32230152 177.42081497 11.99672291 176.83552688 12.69158131 C175.65153248 14.12246574 174.4692501 15.55476846 173.28865188 16.98845631 C172.70921829 17.6916399 172.1297847 18.3948235 171.53279251 19.11931568 C164.97546242 27.18083618 159.00504056 35.7319375 152.89802688 44.12908131 C133.09802688 44.12908131 113.29802688 44.12908131 92.89802688 44.12908131 C92.89802688 84.71908131 92.89802688 125.30908131 92.89802688 167.12908131 C75.40802688 167.12908131 57.91802688 167.12908131 39.89802688 167.12908131 C39.89802688 126.53908131 39.89802688 85.94908131 39.89802688 44.12908131 C14.15802688 44.12908131 -11.58197312 44.12908131 -38.10197312 44.12908131 C-36.25295541 40.4310459 -34.13385014 37.41256248 -31.60197312 34.19158131 C-30.69563297 33.02628683 -29.78938554 31.86092024 -28.88322312 30.69548756 C-28.42044968 30.10267994 -27.95767624 29.50987232 -27.48087937 28.89910084 C-25.34128398 26.15263013 -23.22218072 23.39052654 -21.10197312 20.62908131 C-20.28044471 19.56130666 -19.45882956 18.49359876 -18.63712937 17.42595631 C-16.85128173 15.1045644 -15.06784909 12.78133662 -13.28556687 10.45720631 C-12.82601609 9.85843678 -12.3664653 9.25966725 -11.89298874 8.64275318 C-11.00698119 7.4882585 -10.12154208 6.33332729 -9.23673874 5.17790943 C-5.27333394 0.01581635 -5.27333394 0.01581635 0 0 Z " fill="#1E335F" transform="translate(3370.101973116398,2599.8709186911583)"/>
<path d="M0 0 C17.49 0 34.98 0 53 0 C53 40.92 53 81.84 53 124 C95.24 124 137.48 124 181 124 C179.16588406 127.66823187 177.26052279 130.40787311 174.75 133.625 C174.32106445 134.17696045 173.89212891 134.7289209 173.45019531 135.29760742 C171.9700263 137.20094228 170.48494333 139.10038807 169 141 C167.19470897 143.31682388 165.39056739 145.63453768 163.58691406 147.95263672 C162.3920464 149.48767006 161.19613814 151.02189417 159.99902344 152.55517578 C159.15645996 153.63581299 159.15645996 153.63581299 158.296875 154.73828125 C157.80541992 155.36774658 157.31396484 155.99721191 156.80761719 156.64575195 C155.00156192 158.84697952 155.00156192 158.84697952 154.0157795 160.94797802 C152.5636595 163.47454184 151.26524476 165.14846624 149 167 C144.24397952 168.18418398 139.50900021 168.0125424 134.64111328 167.90820312 C133.14855046 167.90575074 131.65597836 167.90682331 130.16341972 167.91112518 C126.1746345 167.91292763 122.18777844 167.86664856 118.19944763 167.8102417 C114.45378709 167.76459777 110.70858991 167.76253268 106.96264648 167.75683594 C96.01650986 167.7148978 85.07073039 167.60320775 74.125 167.5 C49.66375 167.335 25.2025 167.17 0 167 C0 111.89 0 56.78 0 0 Z " fill="#1E335F" transform="translate(2572,2600)"/>
<path d="M0 0 C17.16 0 34.32 0 52 0 C52 40.92 52 81.84 52 124 C94.57 124 137.14 124 181 124 C179.08709731 127.18817115 177.38951436 129.92450697 175.13671875 132.79296875 C174.5859668 133.49744141 174.03521484 134.20191406 173.46777344 134.92773438 C172.58653809 136.04631836 172.58653809 136.04631836 171.6875 137.1875 C170.4360632 138.78505073 169.18476541 140.38271036 167.93359375 141.98046875 C167.28890137 142.80208496 166.64420898 143.62370117 165.97998047 144.47021484 C163.99062368 147.01197995 162.01121996 149.56117125 160.03515625 152.11328125 C159.4006958 152.93223877 158.76623535 153.75119629 158.11254883 154.5949707 C156.88895863 156.17494017 155.66611614 157.75548904 154.4440918 159.33666992 C153.89019775 160.05056885 153.33630371 160.76446777 152.765625 161.5 C152.03520996 162.44359375 152.03520996 162.44359375 151.29003906 163.40625 C150 165 150 165 148 167 C145.44253349 167.24609566 145.44253349 167.24609566 142.14083862 167.24050903 C140.89539717 167.24326403 139.64995571 167.24601902 138.36677361 167.2488575 C136.97351874 167.24176341 135.58026479 167.23448761 134.18701172 167.22705078 C132.70494662 167.22643839 131.22288095 167.22670463 129.74081612 167.2277813 C125.76289647 167.22823382 121.78509654 167.21662117 117.8072052 167.20256042 C114.07792777 167.19119163 110.34867984 167.19063534 106.61938477 167.18920898 C95.70457391 167.17870387 84.78978546 167.1507817 73.875 167.125 C49.49625 167.08375 25.1175 167.0425 0 167 C0 111.89 0 56.78 0 0 Z " fill="#1E335F" transform="translate(2325,2600)"/>
<path d="M0 0 C17.49 0 34.98 0 53 0 C53 55.11 53 110.22 53 167 C35.51 167 18.02 167 0 167 C0 111.89 0 56.78 0 0 Z " fill="#1E335F" transform="translate(2191,2600)"/>
<path d="M0 0 C17.82 0 35.64 0 54 0 C47.90697617 17.40863951 41.7809113 34.7902225 35.3125 52.0625 C35.05102173 52.76334717 34.78954346 53.46419434 34.5201416 54.1862793 C33.78362939 56.15798751 33.04307842 58.12811971 32.30078125 60.09765625 C31.66910034 61.77613647 31.66910034 61.77613647 31.0246582 63.48852539 C30 66 30 66 29 67 C19.43 67 9.86 67 0 67 C0 44.89 0 22.78 0 0 Z " fill="#1E335F" transform="translate(3077,2724)"/>
</svg>